<svg width="3000" height="2000" viewBox="0 0 3000 2000" fill="none" xmlns="http://www.w3.org/2000/svg">
<path fill-rule="evenodd" clip-rule="evenodd" d="M2341.74 145.206L2275.51 145.969V254.138V362.305L2271.99 365.785L2268.48 369.266L2188.19 370.042C2059.29 371.286 2021.61 375.601 1970.02 395.018C1943.4 405.034 1908.3 423.678 1884.47 440.458C1861.91 456.344 1815.75 502.364 1795.26 529.392C1757.77 578.863 1736.84 628.754 1726.66 692.974L1722.84 717.052L1722.74 834.095L1722.65 951.138L1915.27 951.179C2021.22 951.203 2109.2 952.104 2110.79 953.185C2116.41 956.992 2117.07 964.515 2113.49 983.814C2104.26 1033.55 2075.65 1080.32 2035.98 1110.53C2019.84 1122.81 1982.44 1141.55 1967.31 1144.92C1962.85 1145.92 1950.69 1148.58 1940.28 1150.85L1921.35 1154.96L1798.35 1153.35C1730.69 1152.47 1672.51 1150.99 1669.05 1150.06C1665.59 1149.14 1661.64 1145.45 1660.26 1141.88C1658.79 1138.04 1657.77 1006.2 1657.77 819.718C1657.77 606.962 1656.81 497.784 1654.84 484.816C1649.47 449.508 1642.69 434.31 1622.6 412.555C1605.42 393.956 1591.34 386.093 1562.69 379.1C1517.48 368.065 1503.55 367.554 1271.17 368.429L1048.13 369.266L1047.37 846.803C1046.95 1109.45 1047.31 1328.25 1048.17 1333.03L1049.73 1341.73H1180.7H1311.67L1312.37 957.96L1313.07 574.192L1316.59 570.714C1318.97 568.352 1330.76 566.937 1353.3 566.305L1386.5 565.374L1391.02 569.839L1395.53 574.307V958.121V1341.93L1681.42 1340.97L1967.31 1340.01L1990.29 1335.42C2002.93 1332.9 2016.92 1329.75 2021.38 1328.44C2025.84 1327.12 2034.97 1324.53 2041.66 1322.68C2073.22 1313.96 2114.53 1292.92 2146.18 1269.44C2229.02 1207.98 2282.05 1126.83 2299.99 1034.07L2304.38 1011.33L2305.52 933.749C2306.14 891.078 2306.95 834.82 2307.3 808.731L2307.95 761.293L2112.85 760.576C2005.54 760.18 1916.73 758.853 1915.5 757.625C1912.09 754.251 1914.01 726.966 1918.82 710.364C1939.63 638.551 1995.65 584.355 2067.95 566.086L2090.09 560.495L2343.65 561.313L2597.22 562.135L2610.74 565.329C2626.48 569.05 2644.53 576.549 2644.53 579.371C2644.53 580.447 2637.54 584.069 2628.99 587.419C2614.58 593.064 2581.94 608.494 2566.13 617.133C2521.55 641.497 2471.69 688.151 2434.95 739.885C2419.67 761.394 2394.71 814.234 2387.96 839.349C2384.69 851.541 2380.93 865.128 2379.62 869.542C2378.3 873.957 2375.72 900.544 2373.89 928.626L2370.56 979.686L2373.72 995.286C2375.46 1003.87 2376.89 1015.06 2376.89 1020.16C2376.89 1025.26 2378.2 1034.39 2379.81 1040.45C2392.7 1089.12 2392.84 1089.52 2411.66 1130.38C2428.79 1167.6 2477.83 1227.45 2515.05 1256.57C2579 1306.6 2638.78 1330.65 2719.66 1338.89C2734.96 1340.45 2794.96 1341.73 2852.99 1341.73H2958.5L2957.49 1017.35L2956.48 692.974L2953.44 684.948C2951.77 680.534 2948.99 670.301 2947.26 662.209C2937.85 618.139 2919.45 580.072 2880.75 524.635C2870.98 510.646 2811.89 454.516 2790.52 438.936C2741.87 403.456 2674.27 378.193 2614.79 373.268C2600.67 372.096 2551.4 371 2505.3 370.831C2457.74 370.654 2419.74 369.424 2417.44 367.985L2413.39 365.448L2412.82 256.335C2412.16 128.922 2412.52 143.058 2410.01 143.826C2408.89 144.166 2378.17 144.789 2341.74 145.206ZM42.444 369.82C38.9457 372.565 42.4305 842.247 46.2424 881.581C52.9497 950.866 57.332 983.212 63.8122 1011.33C66.1859 1021.63 68.127 1032.98 68.127 1036.56C68.127 1040.13 70.5006 1050.97 73.4014 1060.63C76.3023 1070.3 80.444 1084.84 82.6041 1092.93C84.7614 1101.02 88.6355 1113.66 91.2119 1121.02C93.7856 1128.38 99.4575 1144.63 103.81 1157.13C122.421 1210.59 165.03 1295.07 193.873 1335.71L198.145 1341.73H353.524H508.901L520.68 1323.67C527.157 1313.74 541.81 1288.16 553.237 1266.82C587.169 1203.47 610.275 1144.38 627.496 1076.88C628.813 1071.73 631.949 1059.69 634.469 1050.12C636.991 1040.56 640.04 1026.11 641.246 1018.02C652.333 943.693 654.593 923.786 660.833 845.465L664.242 802.661L663.896 586.512C663.704 467.63 663.096 370.117 662.544 369.814C661.99 369.512 606.504 369.603 539.239 370.015L416.937 370.761L415.325 377.121C414.436 380.62 415.031 385.922 416.645 388.905C420.384 395.821 420.689 724.39 417.018 790.994C415.609 816.54 413.714 857.303 412.806 881.581C411.897 905.859 409.964 937.16 408.507 951.138C399.597 1036.66 395.928 1064.33 390.945 1083.56C388.661 1092.39 385.736 1103.83 384.449 1108.98C375.282 1145.63 362.167 1174.52 354.695 1174.52C347.174 1174.52 332.364 1142.19 325.284 1110.32C323.648 1102.96 320.463 1089 318.206 1079.29C313.478 1058.98 310.42 1037.2 304.899 984.579C297.095 910.145 294.459 858.785 291.239 718.389C290.447 683.812 288.387 636.582 286.665 613.433C284.588 585.554 284.107 537.466 285.237 470.975L286.946 370.604H177.915C117.946 370.604 63.5419 369.951 57.0157 369.151C50.4868 368.351 43.9309 368.653 42.444 369.82ZM722.404 850.147C722.423 1113.9 723.175 1332.4 724.07 1335.71L725.7 1341.73H856.504H987.306V856.166V370.604H854.836H722.366L722.404 850.147ZM2735.1 757.748C2695.9 763.083 2653.65 784.707 2622.84 815.192C2583.13 854.491 2565.62 897.146 2565.4 955.151C2565.23 999.093 2572.71 1024.23 2597.17 1061.95C2627.84 1109.24 2686.62 1145.15 2742.46 1150.7L2760.64 1152.51L2763.41 1145.28C2767.26 1135.28 2767.23 768.125 2763.39 761.017L2760.59 755.843L2751.9 756.245C2747.12 756.464 2739.56 757.141 2735.1 757.748ZM2617.48 1507.15C2615.75 1507.72 2614.79 1560.56 2614.79 1656.07V1804.11L2619.91 1815.7C2633.25 1845.92 2674.33 1863.2 2706.99 1852.32C2720.21 1847.91 2738.42 1832.51 2744.63 1820.48L2749.97 1810.12V1658.95V1507.78L2685.06 1507.02C2649.37 1506.6 2618.95 1506.66 2617.48 1507.15ZM1936.34 1651.39C1936.41 1730.48 1937.47 1800.38 1938.71 1806.73C1941.33 1820.1 1952.32 1834.7 1968.08 1845.74L1979.15 1853.49C1979.15 1853.49 1991.16 1856.47 1999.31 1856.92C2007.13 1857.34 2019.13 1856.03 2019.13 1856.03L2031.07 1850.78C2048.66 1843.04 2059.45 1832.85 2067.2 1816.63L2074.1 1802.21V1654.9V1507.6H2005.16H1936.22L1936.34 1651.39Z" fill="#066C5F"/>
<rect x="1754.9" y="1389.52" width="1204.94" height="77.1845" fill="#FF7600"/>
<rect x="206.918" y="1693.97" width="1535.11" height="98.6247" fill="url(#paint0_linear_225_16)"/>
<path d="M283.852 1602V1471.09H362.347V1485.15H299.705V1529.39H356.466V1543.45H299.705V1602H283.852ZM551.997 1602V1503.82H566.571V1518.65H567.593C569.383 1513.79 572.622 1509.85 577.309 1506.82C581.997 1503.8 587.281 1502.28 593.161 1502.28C594.269 1502.28 595.654 1502.31 597.316 1502.35C598.978 1502.39 600.235 1502.45 601.088 1502.54V1517.88C600.576 1517.75 599.404 1517.56 597.572 1517.31C595.782 1517.01 593.886 1516.86 591.883 1516.86C587.11 1516.86 582.849 1517.86 579.099 1519.86C575.392 1521.82 572.451 1524.55 570.278 1528.04C568.147 1531.5 567.082 1535.44 567.082 1539.87V1602H551.997ZM813.461 1604.3C807.24 1604.3 801.593 1603.13 796.522 1600.79C791.451 1598.4 787.424 1594.97 784.441 1590.49C781.459 1585.98 779.967 1580.52 779.967 1574.13C779.967 1568.51 781.075 1563.95 783.291 1560.45C785.507 1556.91 788.468 1554.14 792.176 1552.14C795.883 1550.14 799.974 1548.65 804.449 1547.67C808.966 1546.64 813.504 1545.84 818.064 1545.24C824.03 1544.47 828.866 1543.9 832.574 1543.51C836.324 1543.09 839.051 1542.38 840.755 1541.4C842.503 1540.42 843.376 1538.72 843.376 1536.29V1535.78C843.376 1529.47 841.65 1524.57 838.199 1521.08C834.79 1517.58 829.612 1515.84 822.666 1515.84C815.464 1515.84 809.818 1517.41 805.727 1520.57C801.636 1523.72 798.76 1527.09 797.098 1530.66L782.78 1525.55C785.336 1519.59 788.745 1514.94 793.007 1511.62C797.311 1508.25 801.998 1505.91 807.069 1504.59C812.183 1503.22 817.211 1502.54 822.155 1502.54C825.308 1502.54 828.93 1502.92 833.021 1503.69C837.155 1504.41 841.139 1505.93 844.974 1508.23C848.852 1510.53 852.069 1514 854.626 1518.65C857.183 1523.29 858.461 1529.51 858.461 1537.31V1602H843.376V1588.7H842.609C841.586 1590.84 839.882 1593.12 837.495 1595.54C835.109 1597.97 831.934 1600.04 827.971 1601.74C824.008 1603.45 819.172 1604.3 813.461 1604.3ZM815.763 1590.75C821.728 1590.75 826.757 1589.58 830.848 1587.23C834.981 1584.89 838.092 1581.87 840.18 1578.16C842.311 1574.45 843.376 1570.55 843.376 1566.46V1552.65C842.737 1553.42 841.331 1554.12 839.157 1554.76C837.027 1555.36 834.555 1555.89 831.743 1556.36C828.973 1556.79 826.267 1557.17 823.625 1557.51C821.025 1557.81 818.916 1558.07 817.297 1558.28C813.376 1558.79 809.711 1559.62 806.302 1560.77C802.936 1561.88 800.209 1563.56 798.12 1565.82C796.075 1568.04 795.052 1571.06 795.052 1574.9C795.052 1580.14 796.991 1584.1 800.869 1586.79C804.79 1589.43 809.754 1590.75 815.763 1590.75ZM1066.68 1542.94V1602H1051.6V1503.82H1066.17V1519.16H1067.45C1069.75 1514.17 1073.24 1510.17 1077.93 1507.14C1082.62 1504.07 1088.67 1502.54 1096.08 1502.54C1102.73 1502.54 1108.55 1503.9 1113.53 1506.63C1118.52 1509.32 1122.4 1513.41 1125.17 1518.9C1127.94 1524.36 1129.32 1531.26 1129.32 1539.61V1602H1114.24V1540.64C1114.24 1532.92 1112.23 1526.91 1108.23 1522.61C1104.22 1518.26 1098.73 1516.09 1091.74 1516.09C1086.92 1516.09 1082.62 1517.13 1078.83 1519.22C1075.08 1521.31 1072.11 1524.36 1069.94 1528.36C1067.77 1532.37 1066.68 1537.23 1066.68 1542.94ZM1362.37 1604.05C1353.17 1604.05 1345.24 1601.87 1338.6 1597.53C1331.95 1593.18 1326.83 1587.19 1323.26 1579.56C1319.68 1571.94 1317.89 1563.22 1317.89 1553.42C1317.89 1543.45 1319.72 1534.65 1323.38 1527.02C1327.09 1519.35 1332.25 1513.36 1338.85 1509.06C1345.5 1504.71 1353.26 1502.54 1362.12 1502.54C1369.02 1502.54 1375.24 1503.82 1380.78 1506.38C1386.32 1508.93 1390.86 1512.51 1394.4 1517.11C1397.94 1521.72 1400.13 1527.09 1400.98 1533.22H1385.9C1384.75 1528.75 1382.19 1524.78 1378.23 1521.33C1374.31 1517.84 1369.02 1516.09 1362.37 1516.09C1356.49 1516.09 1351.34 1517.62 1346.91 1520.69C1342.52 1523.72 1339.09 1528 1336.61 1533.54C1334.19 1539.04 1332.97 1545.49 1332.97 1552.91C1332.97 1560.49 1334.16 1567.1 1336.55 1572.72C1338.98 1578.35 1342.39 1582.72 1346.78 1585.83C1351.21 1588.94 1356.41 1590.49 1362.37 1590.49C1366.29 1590.49 1369.85 1589.81 1373.05 1588.45C1376.25 1587.09 1378.95 1585.12 1381.17 1582.57C1383.38 1580.01 1384.96 1576.94 1385.9 1573.36H1400.98C1400.13 1579.16 1398.02 1584.38 1394.65 1589.02C1391.33 1593.63 1386.92 1597.29 1381.42 1600.02C1375.97 1602.7 1369.62 1604.05 1362.37 1604.05ZM1629.8 1604.05C1620.34 1604.05 1612.18 1601.96 1605.32 1597.78C1598.5 1593.56 1593.24 1587.68 1589.53 1580.14C1585.87 1572.55 1584.03 1563.73 1584.03 1553.68C1584.03 1543.62 1585.87 1534.76 1589.53 1527.09C1593.24 1519.37 1598.39 1513.36 1605 1509.06C1611.65 1504.71 1619.4 1502.54 1628.27 1502.54C1633.38 1502.54 1638.43 1503.39 1643.41 1505.1C1648.4 1506.8 1652.94 1509.57 1657.03 1513.41C1661.12 1517.2 1664.38 1522.23 1666.81 1528.49C1669.24 1534.76 1670.45 1542.47 1670.45 1551.63V1558.02H1594.77V1544.98H1655.11C1655.11 1539.44 1654 1534.5 1651.79 1530.15C1649.62 1525.81 1646.5 1522.38 1642.46 1519.86C1638.45 1517.35 1633.72 1516.09 1628.27 1516.09C1622.26 1516.09 1617.06 1517.58 1612.67 1520.57C1608.32 1523.51 1604.98 1527.34 1602.63 1532.07C1600.29 1536.8 1599.12 1541.87 1599.12 1547.28V1555.98C1599.12 1563.39 1600.4 1569.68 1602.95 1574.83C1605.55 1579.95 1609.15 1583.85 1613.76 1586.53C1618.36 1589.17 1623.71 1590.49 1629.8 1590.49C1633.76 1590.49 1637.34 1589.94 1640.54 1588.83C1643.78 1587.68 1646.57 1585.98 1648.91 1583.72C1651.26 1581.42 1653.07 1578.56 1654.35 1575.15L1668.92 1579.24C1667.38 1584.19 1664.81 1588.53 1661.18 1592.28C1657.56 1595.99 1653.09 1598.89 1647.76 1600.98C1642.43 1603.02 1636.45 1604.05 1629.8 1604.05Z" fill="black"/>
<path fill-rule="evenodd" clip-rule="evenodd" d="M2341.74 145.206L2275.51 145.969V254.138V362.305L2271.99 365.785L2268.48 369.266L2188.19 370.042C2059.29 371.286 2021.61 375.601 1970.02 395.018C1943.4 405.034 1908.3 423.678 1884.47 440.458C1861.91 456.344 1815.75 502.364 1795.26 529.392C1757.77 578.863 1736.84 628.754 1726.66 692.974L1722.84 717.052L1722.74 834.095L1722.65 951.138L1915.27 951.179C2021.22 951.203 2109.2 952.104 2110.79 953.185C2116.41 956.992 2117.07 964.515 2113.49 983.814C2104.26 1033.55 2075.65 1080.32 2035.98 1110.53C2019.84 1122.81 1982.44 1141.55 1967.31 1144.92C1962.85 1145.92 1950.69 1148.58 1940.28 1150.85L1921.35 1154.96L1798.35 1153.35C1730.69 1152.47 1672.51 1150.99 1669.05 1150.06C1665.59 1149.14 1661.64 1145.45 1660.26 1141.88C1658.79 1138.04 1657.77 1006.2 1657.77 819.718C1657.77 606.962 1656.81 497.784 1654.84 484.816C1649.47 449.508 1642.69 434.31 1622.6 412.555C1605.42 393.956 1591.34 386.093 1562.69 379.1C1517.48 368.065 1503.55 367.554 1271.17 368.429L1048.13 369.266L1047.37 846.803C1046.95 1109.45 1047.31 1328.25 1048.17 1333.03L1049.73 1341.73H1180.7H1311.67L1312.37 957.96L1313.07 574.192L1316.59 570.714C1318.97 568.352 1330.76 566.937 1353.3 566.305L1386.5 565.374L1391.02 569.839L1395.53 574.307V958.121V1341.93L1681.42 1340.97L1967.31 1340.01L1990.29 1335.42C2002.93 1332.9 2016.92 1329.75 2021.38 1328.44C2025.84 1327.12 2034.97 1324.53 2041.66 1322.68C2073.22 1313.96 2114.53 1292.92 2146.18 1269.44C2229.02 1207.98 2282.05 1126.83 2299.99 1034.07L2304.38 1011.33L2305.52 933.749C2306.14 891.078 2306.95 834.82 2307.3 808.731L2307.95 761.293L2112.85 760.576C2005.54 760.18 1916.73 758.853 1915.5 757.625C1912.09 754.251 1914.01 726.966 1918.82 710.364C1939.63 638.551 1995.65 584.355 2067.95 566.086L2090.09 560.495L2343.65 561.313L2597.22 562.135L2610.74 565.329C2626.48 569.05 2644.53 576.549 2644.53 579.371C2644.53 580.447 2637.54 584.069 2628.99 587.419C2614.58 593.064 2581.94 608.494 2566.13 617.133C2521.55 641.497 2471.69 688.151 2434.95 739.885C2419.67 761.394 2394.71 814.234 2387.96 839.349C2384.69 851.541 2380.93 865.128 2379.62 869.542C2378.3 873.957 2375.72 900.544 2373.89 928.626L2370.56 979.686L2373.72 995.286C2375.46 1003.87 2376.89 1015.06 2376.89 1020.16C2376.89 1025.26 2378.2 1034.39 2379.81 1040.45C2392.7 1089.12 2392.84 1089.52 2411.66 1130.38C2428.79 1167.6 2477.83 1227.45 2515.05 1256.57C2579 1306.6 2638.78 1330.65 2719.66 1338.89C2734.96 1340.45 2794.96 1341.73 2852.99 1341.73H2958.5L2957.49 1017.35L2956.48 692.974L2953.44 684.948C2951.77 680.534 2948.99 670.301 2947.26 662.209C2937.85 618.139 2919.45 580.072 2880.75 524.635C2870.98 510.646 2811.89 454.516 2790.52 438.936C2741.87 403.456 2674.27 378.193 2614.79 373.268C2600.67 372.096 2551.4 371 2505.3 370.831C2457.74 370.654 2419.74 369.424 2417.44 367.985L2413.39 365.448L2412.82 256.335C2412.16 128.922 2412.52 143.058 2410.01 143.826C2408.89 144.166 2378.17 144.789 2341.74 145.206ZM42.444 369.82C38.9457 372.565 42.4305 842.247 46.2424 881.581C52.9497 950.866 57.332 983.212 63.8122 1011.33C66.1859 1021.63 68.127 1032.98 68.127 1036.56C68.127 1040.13 70.5006 1050.97 73.4014 1060.63C76.3023 1070.3 80.444 1084.84 82.6041 1092.93C84.7614 1101.02 88.6355 1113.66 91.2119 1121.02C93.7856 1128.38 99.4575 1144.63 103.81 1157.13C122.421 1210.59 165.03 1295.07 193.873 1335.71L198.145 1341.73H353.524H508.901L520.68 1323.67C527.157 1313.74 541.81 1288.16 553.237 1266.82C587.169 1203.47 610.275 1144.38 627.496 1076.88C628.813 1071.73 631.949 1059.69 634.469 1050.12C636.991 1040.56 640.04 1026.11 641.246 1018.02C652.333 943.693 654.593 923.786 660.833 845.465L664.242 802.661L663.896 586.512C663.704 467.63 663.096 370.117 662.544 369.814C661.99 369.512 606.504 369.603 539.239 370.015L416.937 370.761L415.325 377.121C414.436 380.62 415.031 385.922 416.645 388.905C420.384 395.821 420.689 724.39 417.018 790.994C415.609 816.54 413.714 857.303 412.806 881.581C411.897 905.859 409.964 937.16 408.507 951.138C399.597 1036.66 395.928 1064.33 390.945 1083.56C388.661 1092.39 385.736 1103.83 384.449 1108.98C375.282 1145.63 362.167 1174.52 354.695 1174.52C347.174 1174.52 332.364 1142.19 325.284 1110.32C323.648 1102.96 320.463 1089 318.206 1079.29C313.478 1058.98 310.42 1037.2 304.899 984.579C297.095 910.145 294.459 858.785 291.239 718.389C290.447 683.812 288.387 636.582 286.665 613.433C284.588 585.554 284.107 537.466 285.237 470.975L286.946 370.604H177.915C117.946 370.604 63.5419 369.951 57.0157 369.151C50.4868 368.351 43.9309 368.653 42.444 369.82ZM722.404 850.147C722.423 1113.9 723.175 1332.4 724.07 1335.71L725.7 1341.73H856.504H987.306V856.166V370.604H854.836H722.366L722.404 850.147ZM2735.1 757.748C2695.9 763.083 2653.65 784.707 2622.84 815.192C2583.13 854.491 2565.62 897.146 2565.4 955.151C2565.23 999.093 2572.71 1024.23 2597.17 1061.95C2627.84 1109.24 2686.62 1145.15 2742.46 1150.7L2760.64 1152.51L2763.41 1145.28C2767.26 1135.28 2767.23 768.125 2763.39 761.017L2760.59 755.843L2751.9 756.245C2747.12 756.464 2739.56 757.141 2735.1 757.748ZM2617.48 1507.15C2615.75 1507.72 2614.79 1560.56 2614.79 1656.07V1804.11L2619.91 1815.7C2633.25 1845.92 2674.33 1863.2 2706.99 1852.32C2720.21 1847.91 2738.42 1832.51 2744.63 1820.48L2749.97 1810.12V1658.95V1507.78L2685.06 1507.02C2649.37 1506.6 2618.95 1506.66 2617.48 1507.15ZM1936.34 1651.39C1936.41 1730.48 1937.47 1800.38 1938.71 1806.73C1941.33 1820.1 1952.32 1834.7 1968.08 1845.74L1979.15 1853.49C1979.15 1853.49 1991.16 1856.47 1999.31 1856.92C2007.13 1857.34 2019.13 1856.03 2019.13 1856.03L2031.07 1850.78C2048.66 1843.04 2059.45 1832.85 2067.2 1816.63L2074.1 1802.21V1654.9V1507.6H2005.16H1936.22L1936.34 1651.39Z" fill="#066C5F"/>
<rect x="1754.9" y="1389.52" width="1204.94" height="77.1845" fill="#FF7600"/>
<rect x="206.918" y="1693.97" width="1535.11" height="98.6247" fill="url(#paint1_linear_225_16)"/>
<path d="M283.852 1602V1471.09H362.347V1485.15H299.705V1529.39H356.466V1543.45H299.705V1602H283.852ZM551.997 1602V1503.82H566.571V1518.65H567.593C569.383 1513.79 572.622 1509.85 577.309 1506.82C581.997 1503.8 587.281 1502.28 593.161 1502.28C594.269 1502.28 595.654 1502.31 597.316 1502.35C598.978 1502.39 600.235 1502.45 601.088 1502.54V1517.88C600.576 1517.75 599.404 1517.56 597.572 1517.31C595.782 1517.01 593.886 1516.86 591.883 1516.86C587.11 1516.86 582.849 1517.86 579.099 1519.86C575.392 1521.82 572.451 1524.55 570.278 1528.04C568.147 1531.5 567.082 1535.44 567.082 1539.87V1602H551.997ZM813.461 1604.3C807.24 1604.3 801.593 1603.13 796.522 1600.79C791.451 1598.4 787.424 1594.97 784.441 1590.49C781.459 1585.98 779.967 1580.52 779.967 1574.13C779.967 1568.51 781.075 1563.95 783.291 1560.45C785.507 1556.91 788.468 1554.14 792.176 1552.14C795.883 1550.14 799.974 1548.65 804.449 1547.67C808.966 1546.64 813.504 1545.84 818.064 1545.24C824.03 1544.47 828.866 1543.9 832.574 1543.51C836.324 1543.09 839.051 1542.38 840.755 1541.4C842.503 1540.42 843.376 1538.72 843.376 1536.29V1535.78C843.376 1529.47 841.65 1524.57 838.199 1521.08C834.79 1517.58 829.612 1515.84 822.666 1515.84C815.464 1515.84 809.818 1517.41 805.727 1520.57C801.636 1523.72 798.76 1527.09 797.098 1530.66L782.78 1525.55C785.336 1519.59 788.745 1514.94 793.007 1511.62C797.311 1508.25 801.998 1505.91 807.069 1504.59C812.183 1503.22 817.211 1502.54 822.155 1502.54C825.308 1502.54 828.93 1502.92 833.021 1503.69C837.155 1504.41 841.139 1505.93 844.974 1508.23C848.852 1510.53 852.069 1514 854.626 1518.65C857.183 1523.29 858.461 1529.51 858.461 1537.31V1602H843.376V1588.7H842.609C841.586 1590.84 839.882 1593.12 837.495 1595.54C835.109 1597.97 831.934 1600.04 827.971 1601.74C824.008 1603.45 819.172 1604.3 813.461 1604.3ZM815.763 1590.75C821.728 1590.75 826.757 1589.58 830.848 1587.23C834.981 1584.89 838.092 1581.87 840.18 1578.16C842.311 1574.45 843.376 1570.55 843.376 1566.46V1552.65C842.737 1553.42 841.331 1554.12 839.157 1554.76C837.027 1555.36 834.555 1555.89 831.743 1556.36C828.973 1556.79 826.267 1557.17 823.625 1557.51C821.025 1557.81 818.916 1558.07 817.297 1558.28C813.376 1558.79 809.711 1559.62 806.302 1560.77C802.936 1561.88 800.209 1563.56 798.12 1565.82C796.075 1568.04 795.052 1571.06 795.052 1574.9C795.052 1580.14 796.991 1584.1 800.869 1586.79C804.79 1589.43 809.754 1590.75 815.763 1590.75ZM1066.68 1542.94V1602H1051.6V1503.82H1066.17V1519.16H1067.45C1069.75 1514.17 1073.24 1510.17 1077.93 1507.14C1082.62 1504.07 1088.67 1502.54 1096.08 1502.54C1102.73 1502.54 1108.55 1503.9 1113.53 1506.63C1118.52 1509.32 1122.4 1513.41 1125.17 1518.9C1127.94 1524.36 1129.32 1531.26 1129.32 1539.61V1602H1114.24V1540.64C1114.24 1532.92 1112.23 1526.91 1108.23 1522.61C1104.22 1518.26 1098.73 1516.09 1091.74 1516.09C1086.92 1516.09 1082.62 1517.13 1078.83 1519.22C1075.08 1521.31 1072.11 1524.36 1069.94 1528.36C1067.77 1532.37 1066.68 1537.23 1066.68 1542.94ZM1362.37 1604.05C1353.17 1604.05 1345.24 1601.87 1338.6 1597.53C1331.95 1593.18 1326.83 1587.19 1323.26 1579.56C1319.68 1571.94 1317.89 1563.22 1317.89 1553.42C1317.89 1543.45 1319.72 1534.65 1323.38 1527.02C1327.09 1519.35 1332.25 1513.36 1338.85 1509.06C1345.5 1504.71 1353.26 1502.54 1362.12 1502.54C1369.02 1502.54 1375.24 1503.82 1380.78 1506.38C1386.32 1508.93 1390.86 1512.51 1394.4 1517.11C1397.94 1521.72 1400.13 1527.09 1400.98 1533.22H1385.9C1384.75 1528.75 1382.19 1524.78 1378.23 1521.33C1374.31 1517.84 1369.02 1516.09 1362.37 1516.09C1356.49 1516.09 1351.34 1517.62 1346.91 1520.69C1342.52 1523.72 1339.09 1528 1336.61 1533.54C1334.19 1539.04 1332.97 1545.49 1332.97 1552.91C1332.97 1560.49 1334.16 1567.1 1336.55 1572.72C1338.98 1578.35 1342.39 1582.72 1346.78 1585.83C1351.21 1588.94 1356.41 1590.49 1362.37 1590.49C1366.29 1590.49 1369.85 1589.81 1373.05 1588.45C1376.25 1587.09 1378.95 1585.12 1381.17 1582.57C1383.38 1580.01 1384.96 1576.94 1385.9 1573.36H1400.98C1400.13 1579.16 1398.02 1584.38 1394.65 1589.02C1391.33 1593.63 1386.92 1597.29 1381.42 1600.02C1375.97 1602.7 1369.62 1604.05 1362.37 1604.05ZM1629.8 1604.05C1620.34 1604.05 1612.18 1601.96 1605.32 1597.78C1598.5 1593.56 1593.24 1587.68 1589.53 1580.14C1585.87 1572.55 1584.03 1563.73 1584.03 1553.68C1584.03 1543.62 1585.87 1534.76 1589.53 1527.09C1593.24 1519.37 1598.39 1513.36 1605 1509.06C1611.65 1504.71 1619.4 1502.54 1628.27 1502.54C1633.38 1502.54 1638.43 1503.39 1643.41 1505.1C1648.4 1506.8 1652.94 1509.57 1657.03 1513.41C1661.12 1517.2 1664.38 1522.23 1666.81 1528.49C1669.24 1534.76 1670.45 1542.47 1670.45 1551.63V1558.02H1594.77V1544.98H1655.11C1655.11 1539.44 1654 1534.5 1651.79 1530.15C1649.62 1525.81 1646.5 1522.38 1642.46 1519.86C1638.45 1517.35 1633.72 1516.09 1628.27 1516.09C1622.26 1516.09 1617.06 1517.58 1612.67 1520.57C1608.32 1523.51 1604.98 1527.34 1602.63 1532.07C1600.29 1536.8 1599.12 1541.87 1599.12 1547.28V1555.98C1599.12 1563.39 1600.4 1569.68 1602.95 1574.83C1605.55 1579.95 1609.15 1583.85 1613.76 1586.53C1618.36 1589.17 1623.71 1590.49 1629.8 1590.49C1633.76 1590.49 1637.34 1589.94 1640.54 1588.83C1643.78 1587.68 1646.57 1585.98 1648.91 1583.72C1651.26 1581.42 1653.07 1578.56 1654.35 1575.15L1668.92 1579.24C1667.38 1584.19 1664.81 1588.53 1661.18 1592.28C1657.56 1595.99 1653.09 1598.89 1647.76 1600.98C1642.43 1603.02 1636.45 1604.05 1629.8 1604.05Z" fill="black"/>
<path fill-rule="evenodd" clip-rule="evenodd" d="M2341.74 145.206L2275.51 145.969V254.138V362.305L2271.99 365.785L2268.48 369.266L2188.19 370.042C2059.29 371.286 2021.61 375.601 1970.02 395.018C1943.4 405.034 1908.3 423.678 1884.47 440.458C1861.91 456.344 1815.75 502.364 1795.26 529.392C1757.77 578.863 1736.84 628.754 1726.66 692.974L1722.84 717.052L1722.74 834.095L1722.65 951.138L1915.27 951.179C2021.22 951.203 2109.2 952.104 2110.79 953.185C2116.41 956.992 2117.07 964.515 2113.49 983.814C2104.26 1033.55 2075.65 1080.32 2035.98 1110.53C2019.84 1122.81 1982.44 1141.55 1967.31 1144.92C1962.85 1145.92 1950.69 1148.58 1940.28 1150.85L1921.35 1154.96L1798.35 1153.35C1730.69 1152.47 1672.51 1150.99 1669.05 1150.06C1665.59 1149.14 1661.64 1145.45 1660.26 1141.88C1658.79 1138.04 1657.77 1006.2 1657.77 819.718C1657.77 606.962 1656.81 497.784 1654.84 484.816C1649.47 449.508 1642.69 434.31 1622.6 412.555C1605.42 393.956 1591.34 386.093 1562.69 379.1C1517.48 368.065 1503.55 367.554 1271.17 368.429L1048.13 369.266L1047.37 846.803C1046.95 1109.45 1047.31 1328.25 1048.17 1333.03L1049.73 1341.73H1180.7H1311.67L1312.37 957.96L1313.07 574.192L1316.59 570.714C1318.97 568.352 1330.76 566.937 1353.3 566.305L1386.5 565.374L1391.02 569.839L1395.53 574.307V958.121V1341.93L1681.42 1340.97L1967.31 1340.01L1990.29 1335.42C2002.93 1332.9 2016.92 1329.75 2021.38 1328.44C2025.84 1327.12 2034.97 1324.53 2041.66 1322.68C2073.22 1313.96 2114.53 1292.92 2146.18 1269.44C2229.02 1207.98 2282.05 1126.83 2299.99 1034.07L2304.38 1011.33L2305.52 933.749C2306.14 891.078 2306.95 834.82 2307.3 808.731L2307.95 761.293L2112.85 760.576C2005.54 760.18 1916.73 758.853 1915.5 757.625C1912.09 754.251 1914.01 726.966 1918.82 710.364C1939.63 638.551 1995.65 584.355 2067.95 566.086L2090.09 560.495L2343.65 561.313L2597.22 562.135L2610.74 565.329C2626.48 569.05 2644.53 576.549 2644.53 579.371C2644.53 580.447 2637.54 584.069 2628.99 587.419C2614.58 593.064 2581.94 608.494 2566.13 617.133C2521.55 641.497 2471.69 688.151 2434.95 739.885C2419.67 761.394 2394.71 814.234 2387.96 839.349C2384.69 851.541 2380.93 865.128 2379.62 869.542C2378.3 873.957 2375.72 900.544 2373.89 928.626L2370.56 979.686L2373.72 995.286C2375.46 1003.87 2376.89 1015.06 2376.89 1020.16C2376.89 1025.26 2378.2 1034.39 2379.81 1040.45C2392.7 1089.12 2392.84 1089.52 2411.66 1130.38C2428.79 1167.6 2477.83 1227.45 2515.05 1256.57C2579 1306.6 2638.78 1330.65 2719.66 1338.89C2734.96 1340.45 2794.96 1341.73 2852.99 1341.73H2958.5L2957.49 1017.35L2956.48 692.974L2953.44 684.948C2951.77 680.534 2948.99 670.301 2947.26 662.209C2937.85 618.139 2919.45 580.072 2880.75 524.635C2870.98 510.646 2811.89 454.516 2790.52 438.936C2741.87 403.456 2674.27 378.193 2614.79 373.268C2600.67 372.096 2551.4 371 2505.3 370.831C2457.74 370.654 2419.74 369.424 2417.44 367.985L2413.39 365.448L2412.82 256.335C2412.16 128.922 2412.52 143.058 2410.01 143.826C2408.89 144.166 2378.17 144.789 2341.74 145.206ZM42.444 369.82C38.9457 372.565 42.4305 842.247 46.2424 881.581C52.9497 950.866 57.332 983.212 63.8122 1011.33C66.1859 1021.63 68.127 1032.98 68.127 1036.56C68.127 1040.13 70.5006 1050.97 73.4014 1060.63C76.3023 1070.3 80.444 1084.84 82.6041 1092.93C84.7614 1101.02 88.6355 1113.66 91.2119 1121.02C93.7856 1128.38 99.4575 1144.63 103.81 1157.13C122.421 1210.59 165.03 1295.07 193.873 1335.71L198.145 1341.73H353.524H508.901L520.68 1323.67C527.157 1313.74 541.81 1288.16 553.237 1266.82C587.169 1203.47 610.275 1144.38 627.496 1076.88C628.813 1071.73 631.949 1059.69 634.469 1050.12C636.991 1040.56 640.04 1026.11 641.246 1018.02C652.333 943.693 654.593 923.786 660.833 845.465L664.242 802.661L663.896 586.512C663.704 467.63 663.096 370.117 662.544 369.814C661.99 369.512 606.504 369.603 539.239 370.015L416.937 370.761L415.325 377.121C414.436 380.62 415.031 385.922 416.645 388.905C420.384 395.821 420.689 724.39 417.018 790.994C415.609 816.54 413.714 857.303 412.806 881.581C411.897 905.859 409.964 937.16 408.507 951.138C399.597 1036.66 395.928 1064.33 390.945 1083.56C388.661 1092.39 385.736 1103.83 384.449 1108.98C375.282 1145.63 362.167 1174.52 354.695 1174.52C347.174 1174.52 332.364 1142.19 325.284 1110.32C323.648 1102.96 320.463 1089 318.206 1079.29C313.478 1058.98 310.42 1037.2 304.899 984.579C297.095 910.145 294.459 858.785 291.239 718.389C290.447 683.812 288.387 636.582 286.665 613.433C284.588 585.554 284.107 537.466 285.237 470.975L286.946 370.604H177.915C117.946 370.604 63.5419 369.951 57.0157 369.151C50.4868 368.351 43.9309 368.653 42.444 369.82ZM722.404 850.147C722.423 1113.9 723.175 1332.4 724.07 1335.71L725.7 1341.73H856.504H987.306V856.166V370.604H854.836H722.366L722.404 850.147ZM2735.1 757.748C2695.9 763.083 2653.65 784.707 2622.84 815.192C2583.13 854.491 2565.62 897.146 2565.4 955.151C2565.23 999.093 2572.71 1024.23 2597.17 1061.95C2627.84 1109.24 2686.62 1145.15 2742.46 1150.7L2760.64 1152.51L2763.41 1145.28C2767.26 1135.28 2767.23 768.125 2763.39 761.017L2760.59 755.843L2751.9 756.245C2747.12 756.464 2739.56 757.141 2735.1 757.748ZM2617.48 1507.15C2615.75 1507.72 2614.79 1560.56 2614.79 1656.07V1804.11L2619.91 1815.7C2633.25 1845.92 2674.33 1863.2 2706.99 1852.32C2720.21 1847.91 2738.42 1832.51 2744.63 1820.48L2749.97 1810.12V1658.95V1507.78L2685.06 1507.02C2649.37 1506.6 2618.95 1506.66 2617.48 1507.15ZM1936.34 1651.39C1936.41 1730.48 1937.47 1800.38 1938.71 1806.73C1941.33 1820.1 1952.32 1834.7 1968.08 1845.74L1979.15 1853.49C1979.15 1853.49 1991.16 1856.47 1999.31 1856.92C2007.13 1857.34 2019.13 1856.03 2019.13 1856.03L2031.07 1850.78C2048.66 1843.04 2059.45 1832.85 2067.2 1816.63L2074.1 1802.21V1654.9V1507.6H2005.16H1936.22L1936.34 1651.39Z" fill="#066C5F"/>
<rect x="1754.9" y="1389.52" width="1204.94" height="77.1845" fill="#FF7600"/>
<rect x="206.918" y="1693.97" width="1535.11" height="98.6247" fill="url(#paint2_linear_225_16)"/>
<path d="M283.852 1602V1471.09H362.347V1485.15H299.705V1529.39H356.466V1543.45H299.705V1602H283.852ZM551.997 1602V1503.82H566.571V1518.65H567.593C569.383 1513.79 572.622 1509.85 577.309 1506.82C581.997 1503.8 587.281 1502.28 593.161 1502.28C594.269 1502.28 595.654 1502.31 597.316 1502.35C598.978 1502.39 600.235 1502.45 601.088 1502.54V1517.88C600.576 1517.75 599.404 1517.56 597.572 1517.31C595.782 1517.01 593.886 1516.86 591.883 1516.86C587.11 1516.86 582.849 1517.86 579.099 1519.86C575.392 1521.82 572.451 1524.55 570.278 1528.04C568.147 1531.5 567.082 1535.44 567.082 1539.87V1602H551.997ZM813.461 1604.3C807.24 1604.3 801.593 1603.13 796.522 1600.79C791.451 1598.4 787.424 1594.97 784.441 1590.49C781.459 1585.98 779.967 1580.52 779.967 1574.13C779.967 1568.51 781.075 1563.95 783.291 1560.45C785.507 1556.91 788.468 1554.14 792.176 1552.14C795.883 1550.14 799.974 1548.65 804.449 1547.67C808.966 1546.64 813.504 1545.84 818.064 1545.24C824.03 1544.47 828.866 1543.9 832.574 1543.51C836.324 1543.09 839.051 1542.38 840.755 1541.4C842.503 1540.42 843.376 1538.72 843.376 1536.29V1535.78C843.376 1529.47 841.65 1524.57 838.199 1521.08C834.79 1517.58 829.612 1515.84 822.666 1515.84C815.464 1515.84 809.818 1517.41 805.727 1520.57C801.636 1523.72 798.76 1527.09 797.098 1530.66L782.78 1525.55C785.336 1519.59 788.745 1514.94 793.007 1511.62C797.311 1508.25 801.998 1505.91 807.069 1504.59C812.183 1503.22 817.211 1502.54 822.155 1502.54C825.308 1502.54 828.93 1502.92 833.021 1503.69C837.155 1504.41 841.139 1505.93 844.974 1508.23C848.852 1510.53 852.069 1514 854.626 1518.65C857.183 1523.29 858.461 1529.51 858.461 1537.31V1602H843.376V1588.7H842.609C841.586 1590.84 839.882 1593.12 837.495 1595.54C835.109 1597.97 831.934 1600.04 827.971 1601.74C824.008 1603.45 819.172 1604.3 813.461 1604.3ZM815.763 1590.75C821.728 1590.75 826.757 1589.58 830.848 1587.23C834.981 1584.89 838.092 1581.87 840.18 1578.16C842.311 1574.45 843.376 1570.55 843.376 1566.46V1552.65C842.737 1553.42 841.331 1554.12 839.157 1554.76C837.027 1555.36 834.555 1555.89 831.743 1556.36C828.973 1556.79 826.267 1557.17 823.625 1557.51C821.025 1557.81 818.916 1558.07 817.297 1558.28C813.376 1558.79 809.711 1559.62 806.302 1560.77C802.936 1561.88 800.209 1563.56 798.12 1565.82C796.075 1568.04 795.052 1571.06 795.052 1574.9C795.052 1580.14 796.991 1584.1 800.869 1586.79C804.79 1589.43 809.754 1590.75 815.763 1590.75ZM1066.68 1542.94V1602H1051.6V1503.82H1066.17V1519.16H1067.45C1069.75 1514.17 1073.24 1510.17 1077.93 1507.14C1082.62 1504.07 1088.67 1502.54 1096.08 1502.54C1102.73 1502.54 1108.55 1503.9 1113.53 1506.63C1118.52 1509.32 1122.4 1513.41 1125.17 1518.9C1127.94 1524.36 1129.32 1531.26 1129.32 1539.61V1602H1114.24V1540.64C1114.24 1532.92 1112.23 1526.91 1108.23 1522.61C1104.22 1518.26 1098.73 1516.09 1091.74 1516.09C1086.92 1516.09 1082.62 1517.13 1078.83 1519.22C1075.08 1521.31 1072.11 1524.36 1069.94 1528.36C1067.77 1532.37 1066.68 1537.23 1066.68 1542.94ZM1362.37 1604.05C1353.17 1604.05 1345.24 1601.87 1338.6 1597.53C1331.95 1593.18 1326.83 1587.19 1323.26 1579.56C1319.68 1571.94 1317.89 1563.22 1317.89 1553.42C1317.89 1543.45 1319.72 1534.65 1323.38 1527.02C1327.09 1519.35 1332.25 1513.36 1338.85 1509.06C1345.5 1504.71 1353.26 1502.54 1362.12 1502.54C1369.02 1502.54 1375.24 1503.82 1380.78 1506.38C1386.32 1508.93 1390.86 1512.51 1394.4 1517.11C1397.94 1521.72 1400.13 1527.09 1400.98 1533.22H1385.9C1384.75 1528.75 1382.19 1524.78 1378.23 1521.33C1374.31 1517.84 1369.02 1516.09 1362.37 1516.09C1356.49 1516.09 1351.34 1517.62 1346.91 1520.69C1342.52 1523.72 1339.09 1528 1336.61 1533.54C1334.19 1539.04 1332.97 1545.49 1332.97 1552.91C1332.97 1560.49 1334.16 1567.1 1336.55 1572.72C1338.98 1578.35 1342.39 1582.72 1346.78 1585.83C1351.21 1588.94 1356.41 1590.49 1362.37 1590.49C1366.29 1590.49 1369.85 1589.81 1373.05 1588.45C1376.25 1587.09 1378.95 1585.12 1381.17 1582.57C1383.38 1580.01 1384.96 1576.94 1385.9 1573.36H1400.98C1400.13 1579.16 1398.02 1584.38 1394.65 1589.02C1391.33 1593.63 1386.92 1597.29 1381.42 1600.02C1375.97 1602.7 1369.62 1604.05 1362.37 1604.05ZM1629.8 1604.05C1620.34 1604.05 1612.18 1601.96 1605.32 1597.78C1598.5 1593.56 1593.24 1587.68 1589.53 1580.14C1585.87 1572.55 1584.03 1563.73 1584.03 1553.68C1584.03 1543.62 1585.87 1534.76 1589.53 1527.09C1593.24 1519.37 1598.39 1513.36 1605 1509.06C1611.65 1504.71 1619.4 1502.54 1628.27 1502.54C1633.38 1502.54 1638.43 1503.39 1643.41 1505.1C1648.4 1506.8 1652.94 1509.57 1657.03 1513.41C1661.12 1517.2 1664.38 1522.23 1666.81 1528.49C1669.24 1534.76 1670.45 1542.47 1670.45 1551.63V1558.02H1594.77V1544.98H1655.11C1655.11 1539.44 1654 1534.5 1651.79 1530.15C1649.62 1525.81 1646.5 1522.38 1642.46 1519.86C1638.45 1517.35 1633.72 1516.09 1628.27 1516.09C1622.26 1516.09 1617.06 1517.58 1612.67 1520.57C1608.32 1523.51 1604.98 1527.34 1602.63 1532.07C1600.29 1536.8 1599.12 1541.87 1599.12 1547.28V1555.98C1599.12 1563.39 1600.4 1569.68 1602.95 1574.83C1605.55 1579.95 1609.15 1583.85 1613.76 1586.53C1618.36 1589.17 1623.71 1590.49 1629.8 1590.49C1633.76 1590.49 1637.34 1589.94 1640.54 1588.83C1643.78 1587.68 1646.57 1585.98 1648.91 1583.72C1651.26 1581.42 1653.07 1578.56 1654.35 1575.15L1668.92 1579.24C1667.38 1584.19 1664.81 1588.53 1661.18 1592.28C1657.56 1595.99 1653.09 1598.89 1647.76 1600.98C1642.43 1603.02 1636.45 1604.05 1629.8 1604.05Z" fill="black"/>
<path fill-rule="evenodd" clip-rule="evenodd" d="M2341.74 145.206L2275.51 145.969V254.138V362.305L2271.99 365.785L2268.48 369.266L2188.19 370.042C2059.29 371.286 2021.61 375.601 1970.02 395.018C1943.4 405.034 1908.3 423.678 1884.47 440.458C1861.91 456.344 1815.75 502.364 1795.26 529.392C1757.77 578.863 1736.84 628.754 1726.66 692.974L1722.84 717.052L1722.74 834.095L1722.65 951.138L1915.27 951.179C2021.22 951.203 2109.2 952.104 2110.79 953.185C2116.41 956.992 2117.07 964.515 2113.49 983.814C2104.26 1033.55 2075.65 1080.32 2035.98 1110.53C2019.84 1122.81 1982.44 1141.55 1967.31 1144.92C1962.85 1145.92 1950.69 1148.58 1940.28 1150.85L1921.35 1154.96L1798.35 1153.35C1730.69 1152.47 1672.51 1150.99 1669.05 1150.06C1665.59 1149.14 1661.64 1145.45 1660.26 1141.88C1658.79 1138.04 1657.77 1006.2 1657.77 819.718C1657.77 606.962 1656.81 497.784 1654.84 484.816C1649.47 449.508 1642.69 434.31 1622.6 412.555C1605.42 393.956 1591.34 386.093 1562.69 379.1C1517.48 368.065 1503.55 367.554 1271.17 368.429L1048.13 369.266L1047.37 846.803C1046.95 1109.45 1047.31 1328.25 1048.17 1333.03L1049.73 1341.73H1180.7H1311.67L1312.37 957.96L1313.07 574.192L1316.59 570.714C1318.97 568.352 1330.76 566.937 1353.3 566.305L1386.5 565.374L1391.02 569.839L1395.53 574.307V958.121V1341.93L1681.42 1340.97L1967.31 1340.01L1990.29 1335.42C2002.93 1332.9 2016.92 1329.75 2021.38 1328.44C2025.84 1327.12 2034.97 1324.53 2041.66 1322.68C2073.22 1313.96 2114.53 1292.92 2146.18 1269.44C2229.02 1207.98 2282.05 1126.83 2299.99 1034.07L2304.38 1011.33L2305.52 933.749C2306.14 891.078 2306.95 834.82 2307.3 808.731L2307.95 761.293L2112.85 760.576C2005.54 760.18 1916.73 758.853 1915.5 757.625C1912.09 754.251 1914.01 726.966 1918.82 710.364C1939.63 638.551 1995.65 584.355 2067.95 566.086L2090.09 560.495L2343.65 561.313L2597.22 562.135L2610.74 565.329C2626.48 569.05 2644.53 576.549 2644.53 579.371C2644.53 580.447 2637.54 584.069 2628.99 587.419C2614.58 593.064 2581.94 608.494 2566.13 617.133C2521.55 641.497 2471.69 688.151 2434.95 739.885C2419.67 761.394 2394.71 814.234 2387.96 839.349C2384.69 851.541 2380.93 865.128 2379.62 869.542C2378.3 873.957 2375.72 900.544 2373.89 928.626L2370.56 979.686L2373.72 995.286C2375.46 1003.87 2376.89 1015.06 2376.89 1020.16C2376.89 1025.26 2378.2 1034.39 2379.81 1040.45C2392.7 1089.12 2392.84 1089.52 2411.66 1130.38C2428.79 1167.6 2477.83 1227.45 2515.05 1256.57C2579 1306.6 2638.78 1330.65 2719.66 1338.89C2734.96 1340.45 2794.96 1341.73 2852.99 1341.73H2958.5L2957.49 1017.35L2956.48 692.974L2953.44 684.948C2951.77 680.534 2948.99 670.301 2947.26 662.209C2937.85 618.139 2919.45 580.072 2880.75 524.635C2870.98 510.646 2811.89 454.516 2790.52 438.936C2741.87 403.456 2674.27 378.193 2614.79 373.268C2600.67 372.096 2551.4 371 2505.3 370.831C2457.74 370.654 2419.74 369.424 2417.44 367.985L2413.39 365.448L2412.82 256.335C2412.16 128.922 2412.52 143.058 2410.01 143.826C2408.89 144.166 2378.17 144.789 2341.74 145.206ZM42.444 369.82C38.9457 372.565 42.4305 842.247 46.2424 881.581C52.9497 950.866 57.332 983.212 63.8122 1011.33C66.1859 1021.63 68.127 1032.98 68.127 1036.56C68.127 1040.13 70.5006 1050.97 73.4014 1060.63C76.3023 1070.3 80.444 1084.84 82.6041 1092.93C84.7614 1101.02 88.6355 1113.66 91.2119 1121.02C93.7856 1128.38 99.4575 1144.63 103.81 1157.13C122.421 1210.59 165.03 1295.07 193.873 1335.71L198.145 1341.73H353.524H508.901L520.68 1323.67C527.157 1313.74 541.81 1288.16 553.237 1266.82C587.169 1203.47 610.275 1144.38 627.496 1076.88C628.813 1071.73 631.949 1059.69 634.469 1050.12C636.991 1040.56 640.04 1026.11 641.246 1018.02C652.333 943.693 654.593 923.786 660.833 845.465L664.242 802.661L663.896 586.512C663.704 467.63 663.096 370.117 662.544 369.814C661.99 369.512 606.504 369.603 539.239 370.015L416.937 370.761L415.325 377.121C414.436 380.62 415.031 385.922 416.645 388.905C420.384 395.821 420.689 724.39 417.018 790.994C415.609 816.54 413.714 857.303 412.806 881.581C411.897 905.859 409.964 937.16 408.507 951.138C399.597 1036.66 395.928 1064.33 390.945 1083.56C388.661 1092.39 385.736 1103.83 384.449 1108.98C375.282 1145.63 362.167 1174.52 354.695 1174.52C347.174 1174.52 332.364 1142.19 325.284 1110.32C323.648 1102.96 320.463 1089 318.206 1079.29C313.478 1058.98 310.42 1037.2 304.899 984.579C297.095 910.145 294.459 858.785 291.239 718.389C290.447 683.812 288.387 636.582 286.665 613.433C284.588 585.554 284.107 537.466 285.237 470.975L286.946 370.604H177.915C117.946 370.604 63.5419 369.951 57.0157 369.151C50.4868 368.351 43.9309 368.653 42.444 369.82ZM722.404 850.147C722.423 1113.9 723.175 1332.4 724.07 1335.71L725.7 1341.73H856.504H987.306V856.166V370.604H854.836H722.366L722.404 850.147ZM2735.1 757.748C2695.9 763.083 2653.65 784.707 2622.84 815.192C2583.13 854.491 2565.62 897.146 2565.4 955.151C2565.23 999.093 2572.71 1024.23 2597.17 1061.95C2627.84 1109.24 2686.62 1145.15 2742.46 1150.7L2760.64 1152.51L2763.41 1145.28C2767.26 1135.28 2767.23 768.125 2763.39 761.017L2760.59 755.843L2751.9 756.245C2747.12 756.464 2739.56 757.141 2735.1 757.748ZM2617.48 1507.15C2615.75 1507.72 2614.79 1560.56 2614.79 1656.07V1804.11L2619.91 1815.7C2633.25 1845.92 2674.33 1863.2 2706.99 1852.32C2720.21 1847.91 2738.42 1832.51 2744.63 1820.48L2749.97 1810.12V1658.95V1507.78L2685.06 1507.02C2649.37 1506.6 2618.95 1506.66 2617.48 1507.15ZM1936.34 1651.39C1936.41 1730.48 1937.47 1800.38 1938.71 1806.73C1941.33 1820.1 1952.32 1834.7 1968.08 1845.74L1979.15 1853.49C1979.15 1853.49 1991.16 1856.47 1999.31 1856.92C2007.13 1857.34 2019.13 1856.03 2019.13 1856.03L2031.07 1850.78C2048.66 1843.04 2059.45 1832.85 2067.2 1816.63L2074.1 1802.21V1654.9V1507.6H2005.16H1936.22L1936.34 1651.39Z" fill="#066C5F"/>
<rect x="1754.9" y="1389.52" width="1204.94" height="77.1845" fill="#FF7600"/>
<rect x="206.918" y="1693.97" width="1535.11" height="98.6247" fill="url(#paint3_linear_225_16)"/>
<path d="M283.852 1602V1471.09H362.347V1485.15H299.705V1529.39H356.466V1543.45H299.705V1602H283.852ZM551.997 1602V1503.82H566.571V1518.65H567.593C569.383 1513.79 572.622 1509.85 577.309 1506.82C581.997 1503.8 587.281 1502.28 593.161 1502.28C594.269 1502.28 595.654 1502.31 597.316 1502.35C598.978 1502.39 600.235 1502.45 601.088 1502.54V1517.88C600.576 1517.75 599.404 1517.56 597.572 1517.31C595.782 1517.01 593.886 1516.86 591.883 1516.86C587.11 1516.86 582.849 1517.86 579.099 1519.86C575.392 1521.82 572.451 1524.55 570.278 1528.04C568.147 1531.5 567.082 1535.44 567.082 1539.87V1602H551.997ZM813.461 1604.3C807.24 1604.3 801.593 1603.13 796.522 1600.79C791.451 1598.4 787.424 1594.97 784.441 1590.49C781.459 1585.98 779.967 1580.52 779.967 1574.13C779.967 1568.51 781.075 1563.95 783.291 1560.45C785.507 1556.91 788.468 1554.14 792.176 1552.14C795.883 1550.14 799.974 1548.65 804.449 1547.67C808.966 1546.64 813.504 1545.84 818.064 1545.24C824.03 1544.47 828.866 1543.9 832.574 1543.51C836.324 1543.09 839.051 1542.38 840.755 1541.4C842.503 1540.42 843.376 1538.72 843.376 1536.29V1535.78C843.376 1529.47 841.65 1524.57 838.199 1521.08C834.79 1517.58 829.612 1515.84 822.666 1515.84C815.464 1515.84 809.818 1517.41 805.727 1520.57C801.636 1523.72 798.76 1527.09 797.098 1530.66L782.78 1525.55C785.336 1519.59 788.745 1514.94 793.007 1511.62C797.311 1508.25 801.998 1505.91 807.069 1504.59C812.183 1503.22 817.211 1502.54 822.155 1502.54C825.308 1502.54 828.93 1502.92 833.021 1503.69C837.155 1504.41 841.139 1505.93 844.974 1508.23C848.852 1510.53 852.069 1514 854.626 1518.65C857.183 1523.29 858.461 1529.51 858.461 1537.31V1602H843.376V1588.7H842.609C841.586 1590.84 839.882 1593.12 837.495 1595.54C835.109 1597.97 831.934 1600.04 827.971 1601.74C824.008 1603.45 819.172 1604.3 813.461 1604.3ZM815.763 1590.75C821.728 1590.75 826.757 1589.58 830.848 1587.23C834.981 1584.89 838.092 1581.87 840.18 1578.16C842.311 1574.45 843.376 1570.55 843.376 1566.46V1552.65C842.737 1553.42 841.331 1554.12 839.157 1554.76C837.027 1555.36 834.555 1555.89 831.743 1556.36C828.973 1556.79 826.267 1557.17 823.625 1557.51C821.025 1557.81 818.916 1558.07 817.297 1558.28C813.376 1558.79 809.711 1559.62 806.302 1560.77C802.936 1561.88 800.209 1563.56 798.12 1565.82C796.075 1568.04 795.052 1571.06 795.052 1574.9C795.052 1580.14 796.991 1584.1 800.869 1586.79C804.79 1589.43 809.754 1590.75 815.763 1590.75ZM1066.68 1542.94V1602H1051.6V1503.82H1066.17V1519.16H1067.45C1069.75 1514.17 1073.24 1510.17 1077.93 1507.14C1082.62 1504.07 1088.67 1502.54 1096.08 1502.54C1102.73 1502.54 1108.55 1503.9 1113.53 1506.63C1118.52 1509.32 1122.4 1513.41 1125.17 1518.9C1127.94 1524.36 1129.32 1531.26 1129.32 1539.61V1602H1114.24V1540.64C1114.24 1532.92 1112.23 1526.91 1108.23 1522.61C1104.22 1518.26 1098.73 1516.09 1091.74 1516.09C1086.92 1516.09 1082.62 1517.13 1078.83 1519.22C1075.08 1521.31 1072.11 1524.36 1069.94 1528.36C1067.77 1532.37 1066.68 1537.23 1066.68 1542.94ZM1362.37 1604.05C1353.17 1604.05 1345.24 1601.87 1338.6 1597.53C1331.95 1593.18 1326.83 1587.19 1323.26 1579.56C1319.68 1571.94 1317.89 1563.22 1317.89 1553.42C1317.89 1543.45 1319.72 1534.65 1323.38 1527.02C1327.09 1519.35 1332.25 1513.36 1338.85 1509.06C1345.5 1504.71 1353.26 1502.54 1362.12 1502.54C1369.02 1502.54 1375.24 1503.82 1380.78 1506.38C1386.32 1508.93 1390.86 1512.51 1394.4 1517.11C1397.94 1521.72 1400.13 1527.09 1400.98 1533.22H1385.9C1384.75 1528.75 1382.19 1524.78 1378.23 1521.33C1374.31 1517.84 1369.02 1516.09 1362.37 1516.09C1356.49 1516.09 1351.34 1517.62 1346.91 1520.69C1342.52 1523.72 1339.09 1528 1336.61 1533.54C1334.19 1539.04 1332.97 1545.49 1332.97 1552.91C1332.97 1560.49 1334.16 1567.1 1336.55 1572.72C1338.98 1578.35 1342.39 1582.72 1346.78 1585.83C1351.21 1588.94 1356.41 1590.49 1362.37 1590.49C1366.29 1590.49 1369.85 1589.81 1373.05 1588.45C1376.25 1587.09 1378.95 1585.12 1381.17 1582.57C1383.38 1580.01 1384.96 1576.94 1385.9 1573.36H1400.98C1400.13 1579.16 1398.02 1584.38 1394.65 1589.02C1391.33 1593.63 1386.92 1597.29 1381.42 1600.02C1375.97 1602.7 1369.62 1604.05 1362.37 1604.05ZM1629.8 1604.05C1620.34 1604.05 1612.18 1601.96 1605.32 1597.78C1598.5 1593.56 1593.24 1587.68 1589.53 1580.14C1585.87 1572.55 1584.03 1563.73 1584.03 1553.68C1584.03 1543.62 1585.87 1534.76 1589.53 1527.09C1593.24 1519.37 1598.39 1513.36 1605 1509.06C1611.65 1504.71 1619.4 1502.54 1628.27 1502.54C1633.38 1502.54 1638.43 1503.39 1643.41 1505.1C1648.4 1506.8 1652.94 1509.57 1657.03 1513.41C1661.12 1517.2 1664.38 1522.23 1666.81 1528.49C1669.24 1534.76 1670.45 1542.47 1670.45 1551.63V1558.02H1594.77V1544.98H1655.11C1655.11 1539.44 1654 1534.5 1651.79 1530.15C1649.62 1525.81 1646.5 1522.38 1642.46 1519.86C1638.45 1517.35 1633.72 1516.09 1628.27 1516.09C1622.26 1516.09 1617.06 1517.58 1612.67 1520.57C1608.32 1523.51 1604.98 1527.34 1602.63 1532.07C1600.29 1536.8 1599.12 1541.87 1599.12 1547.28V1555.98C1599.12 1563.39 1600.4 1569.68 1602.95 1574.83C1605.55 1579.95 1609.15 1583.85 1613.76 1586.53C1618.36 1589.17 1623.71 1590.49 1629.8 1590.49C1633.76 1590.49 1637.34 1589.94 1640.54 1588.83C1643.78 1587.68 1646.57 1585.98 1648.91 1583.72C1651.26 1581.42 1653.07 1578.56 1654.35 1575.15L1668.92 1579.24C1667.38 1584.19 1664.81 1588.53 1661.18 1592.28C1657.56 1595.99 1653.09 1598.89 1647.76 1600.98C1642.43 1603.02 1636.45 1604.05 1629.8 1604.05Z" fill="black"/>
<defs>
<linearGradient id="paint0_linear_225_16" x1="206.918" y1="1743.28" x2="1742.03" y2="1743.28" gradientUnits="userSpaceOnUse">
<stop stop-color="#FF0505"/>
<stop offset="0.317208" stop-color="#FF0505"/>
<stop offset="0.317308" stop-color="white"/>
<stop offset="0.711438" stop-color="white"/>
<stop offset="0.711538" stop-color="#4000FF"/>
<stop offset="1" stop-color="#4000FF"/>
</linearGradient>
<linearGradient id="paint1_linear_225_16" x1="206.918" y1="1743.28" x2="1742.03" y2="1743.28" gradientUnits="userSpaceOnUse">
<stop stop-color="#FF0505"/>
<stop offset="0.317208" stop-color="#FF0505"/>
<stop offset="0.317308" stop-color="white"/>
<stop offset="0.711438" stop-color="white"/>
<stop offset="0.711538" stop-color="#4000FF"/>
<stop offset="1" stop-color="#4000FF"/>
</linearGradient>
<linearGradient id="paint2_linear_225_16" x1="206.918" y1="1743.28" x2="1742.03" y2="1743.28" gradientUnits="userSpaceOnUse">
<stop stop-color="#FF0505"/>
<stop offset="0.317208" stop-color="#FF0505"/>
<stop offset="0.317308" stop-color="white"/>
<stop offset="0.711438" stop-color="white"/>
<stop offset="0.711538" stop-color="#4000FF"/>
<stop offset="1" stop-color="#4000FF"/>
</linearGradient>
<linearGradient id="paint3_linear_225_16" x1="206.918" y1="1743.28" x2="1742.03" y2="1743.28" gradientUnits="userSpaceOnUse">
<stop stop-color="#FF0505"/>
<stop offset="0.317208" stop-color="#FF0505"/>
<stop offset="0.317308" stop-color="white"/>
<stop offset="0.711438" stop-color="white"/>
<stop offset="0.711538" stop-color="#4000FF"/>
<stop offset="1" stop-color="#4000FF"/>
</linearGradient>
</defs>
</svg>
